# xmcd
#
# Track frame offsets:
#	150
#	18657
#	39732
#	58842
#	78232
#	98345
#	114005
#	134930
#	154477
#	180727
#
# Disc length: 2625 seconds
# Revision: 3
# Processed by: cddbd v1.5.2PL0 Copyright (c) Steve Scherf et al.
# Submitted via: dBpowerAMP V12.0
#
DISCID=820a3f0a
DTITLE=Floyd Miles and Friends - Goin' Back to Daytona
DYEAR=1994
DGENRE=Soul
TTITLE0=The Same Thing
TTITLE1=Goin' Back to Daytona
TTITLE2=Mean Heartbreaker
TTITLE3=No Life at All
TTITLE4=Oh, Mary
TTITLE5=Two Against Them All
TTITLE6=All The Love I Can
TTITLE7=Samson and Delilah
TTITLE8=That's Why I'm Here Tonight
TTITLE9=Love on The Rocks
EXTD=
EXTT0=
EXTT1=
EXTT2=
EXTT3=
EXTT4=
EXTT5=
EXTT6=
EXTT7=
EXTT8=
EXTT9=
PLAYORDER=
